<svg width="27" height="39" viewBox="0 0 27 39" fill="none" xmlns="http://www.w3.org/2000/svg">
<path d="M7.25581 37.5323C7.6722 37.5323 7.9206 37.2859 7.99419 37.0287L7.74118 36.9516C7.68597 37.123 7.52958 37.2859 7.25581 37.2859C6.9775 37.2859 6.71528 37.0974 6.71528 36.7416C6.71528 36.373 6.98444 36.1908 7.25354 36.1908C7.52725 36.1908 7.67908 36.3387 7.72736 36.523L7.9873 36.4416C7.91372 36.1759 7.66759 35.9487 7.25354 35.9487C6.83033 35.9487 6.43237 36.2466 6.43237 36.7416C6.43237 37.2366 6.81651 37.5323 7.25581 37.5323ZM8.44274 36.7394C8.44274 36.3731 8.71418 36.1908 8.98789 36.1908C9.26396 36.1908 9.5354 36.3731 9.5354 36.7394C9.5354 37.1059 9.26396 37.2881 8.98789 37.2881C8.71418 37.2881 8.44274 37.1059 8.44274 36.7394ZM8.15984 36.7394C8.15984 37.2388 8.56011 37.5323 8.98789 37.5323C9.41567 37.5323 9.81831 37.2388 9.81831 36.7394C9.81831 36.2423 9.41567 35.9487 8.98789 35.9487C8.56011 35.9487 8.15984 36.2423 8.15984 36.7394ZM11.9175 37.5002V35.9809H11.5425L11.0204 37.1402L10.4913 35.9809H10.1232V37.5002H10.3924V36.3858L10.8962 37.5002H11.1353L11.6437 36.3816V37.5002H11.9175ZM12.6029 36.6794V36.208H12.8904C13.0652 36.208 13.171 36.3002 13.171 36.4459C13.171 36.5894 13.0652 36.6794 12.8904 36.6794H12.6029ZM12.9318 36.9067C13.2446 36.9067 13.4517 36.7116 13.4517 36.4437C13.4517 36.1781 13.2446 35.9809 12.9318 35.9809H12.3269V37.5002H12.6029V36.9067H12.9318ZM14.7433 37.5002V37.2559H13.9956V35.9809H13.7196V37.5002H14.7433ZM15.2672 37.5002V35.9809H14.9866V37.5002H15.2672ZM16.7895 37.5002H17.0908L16.4559 35.9809H16.1362L15.5014 37.5002H15.7935L15.9453 37.1187H16.6354L16.7895 37.5002ZM16.2903 36.2595L16.5388 36.8809H16.0419L16.2903 36.2595ZM18.6936 37.5002V35.9809H18.4176V37.0588L17.6769 35.9809H17.325V37.5002H17.601V36.3494L18.4061 37.5002H18.6936ZM20.2747 36.2231V35.9809H18.9383V36.2231H19.4673V37.5002H19.7434V36.2231H20.2747Z" fill="#9ca3af"/>
<path d="M6.31322 33.7456C7.93254 33.7456 8.62451 32.7171 8.79377 32.0451L7.68228 31.7502C7.57926 32.0999 7.21858 32.6622 6.31322 32.6622C5.53298 32.6622 4.81165 32.1342 4.81165 31.2223C4.81165 30.2005 5.59921 29.7343 6.29851 29.7343C7.21858 29.7343 7.54982 30.3034 7.63077 30.6394L8.72753 30.3171C8.55819 29.6177 7.86631 28.6782 6.29851 28.6782C4.84108 28.6782 3.60449 29.7068 3.60449 31.2223C3.60449 32.7377 4.81164 33.7456 6.31322 33.7456ZM11.7207 33.7456C13.3401 33.7456 14.032 32.7171 14.2013 32.0451L13.0899 31.7502C12.9868 32.0999 12.6261 32.6622 11.7207 32.6622C10.9405 32.6622 10.2192 32.1342 10.2192 31.2223C10.2192 30.2005 11.0068 29.7343 11.7061 29.7343C12.6261 29.7343 12.9573 30.3034 13.0383 30.6394L14.135 30.3171C13.9658 29.6177 13.2739 28.6782 11.7061 28.6782C10.2486 28.6782 9.01204 29.7068 9.01204 31.2223C9.01204 32.7377 10.2192 33.7456 11.7207 33.7456ZM15.8917 30.9617V29.7205H16.5689C17.0105 29.7205 17.3123 29.9537 17.3123 30.3445C17.3123 30.7216 17.0105 30.9617 16.5689 30.9617H15.8917ZM16.6867 31.8942C17.7466 31.8942 18.4753 31.2565 18.4753 30.3376C18.4753 29.4325 17.7466 28.7811 16.6867 28.7811H14.7214V33.6428H15.8844V31.8942H16.6867ZM22.0569 33.6428H23.323L21.3797 28.7811H20.0328L18.0675 33.6428H19.2893L19.6647 32.6554H21.6815L22.0569 33.6428ZM20.6879 29.9879L21.3135 31.6679H20.0475L20.6879 29.9879Z" fill="#9ca3af"/>
<path d="M12.1442 5.68561V0.395508H5.25304V1.92744L4.46729 4.02679L5.25304 4.76436V6.86394L6.82477 8.33909V9.02011L8.21521 11.1194V12.0272L10.5122 14.7507V17.0204H12.9907L16.7384 19.0062V20.5384L22.1788 19.744V16.2828L18.3707 12.5161H10.4478V5.68561H12.1442Z" fill="#9ca3af"/>
<path d="M12.7477 18.181V17.5381H10.4475V18.181H12.7477Z" fill="#9ca3af"/>
<path d="M12.978 19.8957V19.0386H13.668V19.8957H12.978Z" fill="#9ca3af"/>
<path d="M13.6677 19.0384V18.3955H14.3577V19.0384H13.6677Z" fill="#9ca3af"/>
<path d="M11.5977 7.181C11.5977 6.94446 11.8035 6.75244 12.0577 6.75244H18.0382C18.2924 6.75244 18.4983 6.94446 18.4983 7.181V11.02C18.4983 11.2568 18.2924 11.4486 18.0382 11.4486H12.0577C11.8035 11.4486 11.5977 11.2568 11.5977 11.02V7.181Z" fill="#9ca3af"/>
<path d="M14.4223 10.0996L13.5143 9.31896C13.4122 9.23113 13.4122 9.0894 13.5143 9.00158C13.6158 8.91437 13.7807 8.9139 13.8829 9.00033L13.884 9.00134L14.6391 9.64874L16.4415 8.09919C16.5428 8.01222 16.7075 8.01183 16.8094 8.09818L16.8114 8.0999C16.9138 8.18843 16.9136 8.33062 16.8108 8.41891L14.856 10.0996C14.7372 10.2018 14.5437 10.2022 14.4241 10.1008L14.4223 10.0996Z" fill="black"/>
<path d="M16.672 6.85774V5.67039C16.672 4.88736 15.9904 4.25244 15.1497 4.25244C14.309 4.25244 13.6274 4.88736 13.6274 5.67039V6.85774" stroke="#9ca3af" stroke-width="2"/>
</svg>
