<svg width="28" height="39" viewBox="0 0 28 39" fill="none" xmlns="http://www.w3.org/2000/svg">
<path d="M10.038 38.3609H10.3504L9.69211 36.8499H9.36056L8.70215 38.3609H9.00512L9.1625 37.9816H9.87815L10.038 38.3609ZM9.52041 37.1269L9.77801 37.745H9.26272L9.52041 37.1269ZM11.6547 38.3609V38.1179H10.8795V36.8499H10.5932V38.3609H11.6547ZM12.1981 38.3609V36.8499H11.9072V38.3609H12.1981ZM14.1202 38.3609V37.5958H13.2925V37.8195H13.8507C13.8364 37.9496 13.7076 38.1585 13.3665 38.1585C13.0754 38.1585 12.8083 37.973 12.8083 37.6043C12.8083 37.2292 13.0945 37.0545 13.3688 37.0545C13.6384 37.0545 13.8054 37.1994 13.8625 37.3699L14.1322 37.2782C14.0415 37.0289 13.7791 36.8179 13.3688 36.8179C12.9299 36.8179 12.5173 37.1078 12.5173 37.6043C12.5173 38.103 12.9084 38.3928 13.3497 38.3928C13.6193 38.3928 13.7934 38.2799 13.8673 38.1691L13.8888 38.3609H14.1202ZM15.8959 38.3609V36.8499H15.6097V37.9219L14.8416 36.8499H14.4766V38.3609H14.7628V37.2165L15.5977 38.3609H15.8959ZM17.3663 38.3609V38.1222H16.6077V37.7215H17.2947V37.4892H16.6077V37.0885H17.3663V36.8499H16.3214V38.3609H17.3663ZM17.9915 38.1265V37.0843H18.2945C18.5878 37.0843 18.8288 37.2548 18.8288 37.6086C18.8288 37.9581 18.5854 38.1265 18.292 38.1265H17.9915ZM18.3015 38.3609C18.7596 38.3609 19.1269 38.0924 19.1269 37.6086C19.1269 37.1227 18.7644 36.8499 18.3039 36.8499H17.7052V38.3609H18.3015Z" fill="#9ca3af"/>
<path d="M9.18871 34.5243V31.9397H6.43311V32.8536H8.05903C7.99029 33.1263 7.6163 33.6446 6.72321 33.6446C5.84538 33.6446 5.0973 33.1195 5.0973 32.1102C5.0973 31.0326 5.95985 30.5962 6.69263 30.5962C7.59335 30.5962 7.95213 31.1418 8.03613 31.4419L9.19637 31.0805C8.95977 30.4053 8.24215 29.5869 6.69263 29.5869C5.16599 29.5869 3.87598 30.5894 3.87598 32.1102C3.87598 33.6378 5.11256 34.6267 6.61631 34.6267C7.3873 34.6267 7.89871 34.3402 8.13535 34.0333L8.21165 34.5243H9.18871ZM11.1891 33.5082V30.7054H11.8914C12.7234 30.7054 13.4027 31.1418 13.4027 32.1102C13.4027 33.0786 12.7234 33.5082 11.8914 33.5082H11.1891ZM11.9372 34.5243C13.5707 34.5243 14.6622 33.6037 14.6622 32.1102C14.6622 30.6167 13.5707 29.6893 11.9448 29.6893H9.98309V34.5243H11.9372ZM16.5735 31.8579V30.6235H17.2757C17.7337 30.6235 18.0467 30.8554 18.0467 31.2441C18.0467 31.6192 17.7337 31.8579 17.2757 31.8579H16.5735ZM17.3978 32.7853C18.4971 32.7853 19.2527 32.1511 19.2527 31.2372C19.2527 30.337 18.4971 29.6893 17.3978 29.6893H15.3597V34.5243H16.5658V32.7853H17.3978ZM22.415 34.5243H23.7432L22.644 32.5671C23.3081 32.3557 23.7126 31.8579 23.7126 31.2032C23.7126 30.3439 23.0257 29.6893 21.957 29.6893H19.8121V34.5243H21.0181V32.7239H21.4456L22.415 34.5243ZM21.0181 31.7965V30.6235H21.728C22.2242 30.6235 22.4913 30.8486 22.4913 31.2099C22.4913 31.551 22.2242 31.7965 21.728 31.7965H21.0181Z" fill="#9ca3af"/>
<path d="M13.8357 1.45898L14.2529 2.63874H15.6035L14.511 3.36785L14.9282 4.54761L13.8357 3.81806L12.7432 4.54761L13.1606 3.36785L12.0676 2.63874H13.4182L13.8357 1.45898Z" fill="#9ca3af"/>
<path d="M13.8357 20.8735L14.2529 22.0536H15.6035L14.511 22.7827L14.9282 23.9623L13.8357 23.2332L12.7432 23.9623L13.1606 22.7827L12.0676 22.0536H13.4182L13.8357 20.8735Z" fill="#9ca3af"/>
<path d="M19.3913 3.22363L19.8083 4.40338H21.1591L20.0664 5.13278L20.4838 6.31225L19.3913 5.58284L18.2983 6.31225L18.7158 5.13278L17.6233 4.40338H18.9741L19.3913 3.22363Z" fill="#9ca3af"/>
<path d="M23.9376 6.56982L24.3544 7.74948H25.7053L24.6126 8.47876L25.03 9.65851L23.9376 8.92944L22.8447 9.65851L23.2622 8.47876L22.1694 7.74948H23.5199L23.9376 6.56982Z" fill="#9ca3af"/>
<path d="M23.9376 16.0195L24.3548 17.1998H25.7053L24.6126 17.9288L25.0302 19.1083L23.9376 18.3793L22.8447 19.1083L23.2622 17.9288L22.1694 17.1998H23.52L23.9376 16.0195Z" fill="#9ca3af"/>
<path d="M3.73148 6.56982L4.14866 7.74948H5.49929L4.40667 8.47876L4.82384 9.65851L3.73148 8.92944L2.63864 9.65851L3.056 8.47876L1.96338 7.74948H3.31432L3.73148 6.56982Z" fill="#9ca3af"/>
<path d="M24.948 11.166L25.3652 12.3458H26.7158L25.6231 13.0748L26.0405 14.2546L24.948 13.526L23.8552 14.2546L24.2729 13.0748L23.1799 12.3458H24.5303L24.948 11.166Z" fill="#9ca3af"/>
<path d="M2.72257 11.166L3.13973 12.3458H4.49029L3.39749 13.0748L3.81515 14.2546L2.72257 13.526L1.62971 14.2546L2.04714 13.0748L0.954346 12.3458H2.30513L2.72257 11.166Z" fill="#9ca3af"/>
<path d="M3.7316 16.0195L4.14873 17.1998H5.49929L4.40681 17.9288L4.82389 19.1083L3.7316 18.3793L2.6388 19.1083L3.05617 17.9288L1.96338 17.1998H3.31423L3.7316 16.0195Z" fill="#9ca3af"/>
<path d="M20.4021 19.9907L20.8193 21.1703H22.1699L21.0769 21.8999L21.4946 23.0794L20.4021 22.3504L19.3091 23.0794L19.7268 21.8999L18.634 21.1703H19.9849L20.4021 19.9907Z" fill="#9ca3af"/>
<path d="M8.27756 3.22363L8.69459 4.40338H10.0455L8.95269 5.13278L9.37038 6.31225L8.27756 5.58284L7.18498 6.31225L7.60234 5.13278L6.50952 4.40338H7.86011L8.27756 3.22363Z" fill="#9ca3af"/>
<path d="M7.26833 19.9907L7.68564 21.1709H9.03641L7.94368 21.8996L8.36103 23.0794L7.26833 22.3508L6.17583 23.0794L6.59315 21.8996L5.50049 21.1709H6.85091L7.26833 19.9907Z" fill="#9ca3af"/>
<path d="M10.2571 12.0033C10.2571 11.7679 10.4707 11.5771 10.7342 11.5771H16.9361C17.1998 11.5771 17.4132 11.7679 17.4132 12.0033V15.8033C17.4132 16.0387 17.1998 16.2295 16.9361 16.2295H10.7342C10.4707 16.2295 10.2571 16.0387 10.2571 15.8033V12.0033Z" fill="#9ca3af"/>
<path d="M13.1862 14.9694L12.2448 14.1962C12.1388 14.1091 12.1388 13.9687 12.2448 13.8817C12.3499 13.7954 12.5209 13.7948 12.6268 13.8805L12.628 13.8815L13.4112 14.523L15.2804 12.9879C15.3854 12.9016 15.5562 12.9012 15.6618 12.9866L15.664 12.9883C15.7701 13.0761 15.7699 13.2172 15.6632 13.3046L13.6361 14.9694C13.5128 15.0707 13.3122 15.0713 13.1882 14.9708L13.1862 14.9694Z" fill="#9ca3af"/>
<path d="M15.5193 11.6826V10.5119C15.5193 9.73297 14.8126 9.10156 13.9407 9.10156C13.0688 9.10156 12.3621 9.73297 12.3621 10.5119V11.6826" stroke="#9ca3af" stroke-width="2"/>
</svg>
