<svg width="38" height="39" viewBox="0 0 38 39" fill="none" xmlns="http://www.w3.org/2000/svg">
<g clip-path="url(#clip0_2996_14091)">
<path d="M18.9803 5.71289C26.4087 5.71998 32.4245 11.7811 32.4174 19.251C32.4104 26.7209 26.3829 32.7702 18.9545 32.7631C11.5354 32.756 5.52282 26.7091 5.51734 19.2479C5.51029 11.7796 11.5245 5.71998 18.9513 5.71289C18.9607 5.71289 18.9701 5.71289 18.9803 5.71289ZM14.4587 26.1828C17.3749 25.1404 20.5599 25.1396 23.4768 26.1812L23.896 24.5952C24.0895 24.5952 24.2666 24.5905 24.4453 24.5968C24.6294 24.5818 24.8143 24.592 24.9953 24.6291C24.8691 25.287 24.7101 25.9385 24.5173 26.5799C25.0141 26.8556 25.5077 27.1054 25.977 27.3953C26.4463 27.6845 26.8906 28.0106 27.3442 28.3203C32.7974 23.2952 32.4574 14.7483 27.3231 10.1439C26.4565 10.8294 25.5124 11.41 24.5103 11.8725C24.7007 12.5509 24.8825 13.2009 25.0023 13.8714H23.8858C23.8177 13.6011 23.7558 13.3427 23.6876 13.0866C23.6288 12.8188 23.5513 12.5564 23.4541 12.3003C20.5442 13.3372 17.3679 13.3356 14.4587 12.2956L14.038 13.8863C13.8444 13.8863 13.6658 13.8871 13.4879 13.8863C13.3062 13.8848 13.1244 13.8816 12.9081 13.8785L13.4151 11.867C12.4153 11.4061 11.4743 10.827 10.6117 10.14C5.19297 15.1091 5.42097 23.6553 10.6117 28.3313C11.4806 27.6451 12.4263 27.0636 13.4292 26.5996C13.2278 25.9433 13.0609 25.2759 12.9301 24.6023H14.0434L14.4587 26.1828ZM23.0906 11.2446C23.0843 11.2005 23.0749 11.1571 23.0632 11.1138C22.7215 10.188 22.253 9.31507 21.6724 8.51931C21.2987 7.99695 20.827 7.55259 20.2841 7.21144C19.5264 6.71744 18.5588 6.69065 17.7753 7.1421C17.2715 7.42653 16.8272 7.80628 16.4676 8.26089C15.8894 8.97944 15.4185 9.77913 15.0683 10.634C14.986 10.8254 14.9108 11.02 14.823 11.2359C17.4956 12.2003 20.4173 12.2034 23.0906 11.2446ZM14.8364 27.2314C14.8552 27.296 14.863 27.3339 14.8763 27.3685C15.1952 28.2273 15.6214 29.0412 16.1448 29.792C16.4872 30.2876 16.9064 30.7257 17.3867 31.0881C18.395 31.8279 19.4888 31.8374 20.5074 31.1165C20.856 30.8659 21.171 30.5705 21.4444 30.2388C22.1402 29.3729 22.6886 28.3967 23.0671 27.3504C23.078 27.3102 23.0851 27.2693 23.089 27.2283C20.4196 26.2734 17.505 26.275 14.8364 27.2314ZM22.1135 31.2102C23.6939 30.81 25.1755 30.0859 26.4636 29.0822C25.7561 28.5291 24.9882 28.0587 24.1757 27.6797C23.867 28.3124 23.5834 28.9293 23.2684 29.5297C22.9433 30.1285 22.5562 30.6918 22.1135 31.2102ZM15.8338 31.215C15.3872 30.7028 14.9978 30.1419 14.6734 29.5431C14.3521 28.938 14.0693 28.3132 13.7606 27.679C12.9473 28.0587 12.1787 28.5291 11.4712 29.0822C12.764 30.0867 14.2487 30.8131 15.8338 31.215ZM24.135 10.7916C24.7297 10.5899 26.2215 9.66016 26.4291 9.36392C25.1465 8.37119 23.6743 7.65501 22.1041 7.2595C23.0107 8.30344 23.632 9.50495 24.135 10.7916ZM15.8118 7.26816C14.2401 7.66525 12.7663 8.38538 11.4837 9.38204C11.9444 9.81301 13.3704 10.6734 13.806 10.7821C14.273 9.50574 14.9507 8.31762 15.8118 7.26816Z" fill="black"/>
<path d="M26.1338 36.5198C26.1361 36.9295 26.0491 37.3345 25.8791 37.7072C25.5587 38.4265 24.8614 38.9008 24.0786 38.9323C23.7989 38.9583 23.5169 38.9355 23.2458 38.8638C22.55 38.6897 21.9961 38.161 21.7853 37.4716C21.5738 36.8515 21.5706 36.1787 21.7759 35.557C22.0306 34.714 22.7804 34.12 23.6548 34.0687C24.1225 34.0175 24.595 34.1121 25.0079 34.339C25.5595 34.6518 25.9426 35.1962 26.0523 35.8233C26.0977 36.051 26.1079 36.2874 26.1338 36.5198ZM23.2176 36.4938L23.2567 36.497C23.2567 36.6766 23.245 36.857 23.2591 37.0359C23.2614 37.3495 23.328 37.6583 23.4542 37.9451C23.5263 38.1066 23.6845 38.2122 23.86 38.2169C24.0449 38.2295 24.2181 38.1232 24.2917 37.9522C24.3544 37.8269 24.3999 37.6938 24.4265 37.5559C24.5323 36.9311 24.544 36.2937 24.461 35.6658C24.4336 35.4657 24.3811 35.2687 24.3059 35.0812C24.2479 34.9039 24.0818 34.7849 23.8961 34.7881C23.7033 34.781 23.527 34.8937 23.451 35.0709C23.3986 35.167 23.3625 35.271 23.3445 35.379C23.2943 35.7501 23.2583 36.122 23.2176 36.4938Z" fill="black"/>
<path d="M21.1985 36.5184C21.2244 36.9344 21.1429 37.3496 20.9627 37.7246C20.6289 38.4566 19.9041 38.9277 19.1042 38.9356C18.7461 38.9624 18.3865 38.9049 18.0535 38.7686C17.4894 38.5354 17.0585 38.0618 16.8775 37.4765C16.6691 36.8643 16.6628 36.2009 16.8587 35.584C17.1109 34.7039 17.9015 34.0902 18.8119 34.0665C19.5241 34.0311 20.1494 34.2272 20.6352 34.7803C20.9681 35.1688 21.1648 35.6557 21.1954 36.1678C21.2063 36.2828 21.1985 36.401 21.1985 36.5184ZM19.6189 36.5609C19.5978 36.23 19.597 35.9779 19.5618 35.7321C19.532 35.5162 19.4803 35.3035 19.4074 35.0986C19.3518 34.9111 19.1786 34.7835 18.9843 34.7851C18.7822 34.7764 18.598 34.9032 18.533 35.0963C18.4617 35.2523 18.4155 35.4193 18.3967 35.5895C18.3677 36.0953 18.3505 36.6035 18.3575 37.1101C18.352 37.4008 18.4178 37.6892 18.5479 37.9492C18.6498 38.1808 18.9193 38.2856 19.1504 38.1832C19.2468 38.1398 19.3259 38.065 19.3737 37.9697C19.4481 37.8412 19.4975 37.7002 19.5187 37.5529C19.5665 37.1968 19.5915 36.8391 19.6174 36.5609H19.6189Z" fill="black"/>
<path d="M7.95018 35.1637C7.97604 35.1747 8.00346 35.1826 8.03089 35.1889C8.30198 35.185 8.52528 35.4032 8.52919 35.6758C8.52919 35.6924 8.52919 35.7089 8.52763 35.7247C8.55035 36.0438 8.3341 36.3298 8.02305 36.3936C7.91571 36.4117 7.80602 36.4172 7.69711 36.4101C7.35394 36.4022 7.07266 36.1344 7.04524 35.7901C6.98177 35.3465 7.14474 34.9013 7.47851 34.6043C7.83109 34.2892 8.27926 34.1032 8.75014 34.0764C9.31818 33.9976 9.89641 34.1127 10.3924 34.4026C10.94 34.7178 11.208 35.3646 11.0442 35.9776C10.9643 36.2935 10.7583 36.5622 10.4746 36.7198C10.1511 36.9089 9.80474 37.0546 9.44433 37.1555C9.18421 37.2358 8.92016 37.3067 8.66552 37.4029C8.42656 37.4706 8.22128 37.6266 8.09043 37.8393C8.14136 37.8267 8.1915 37.8118 8.24087 37.7936C8.66004 37.5951 9.13563 37.5518 9.58379 37.6715C9.72639 37.7109 9.87134 37.7424 10.0171 37.7669C10.3328 37.8141 10.459 37.7093 10.4966 37.3832C10.5021 37.3367 10.5044 37.2902 10.5115 37.2138C10.7536 37.1972 10.9965 37.198 11.2386 37.2169C11.2668 37.6432 11.2668 38.0521 11.0591 38.4318C10.8656 38.7872 10.5318 38.9014 10.1612 38.9337C9.80317 38.9573 9.44355 38.914 9.10115 38.8053C8.87707 38.7407 8.65377 38.6682 8.42577 38.6209C8.20091 38.5744 7.96821 38.5453 7.82796 38.7942H7.05464C7.02095 38.4397 7.08676 38.082 7.2466 37.7637C7.44717 37.3981 7.73707 37.0901 8.08886 36.8687C8.35134 36.6867 8.62713 36.5236 8.89509 36.3502C8.9946 36.2888 9.09097 36.2218 9.18264 36.1493C9.38322 35.9925 9.49526 35.7475 9.4835 35.4922C9.48821 35.2582 9.35031 35.0447 9.13563 34.9533C8.73682 34.7666 8.2628 34.8501 7.95018 35.1637Z" fill="black"/>
<path d="M12.9663 34.1955C12.9757 34.346 12.9828 34.4658 12.9914 34.6155C13.0219 34.5911 13.0517 34.5635 13.0783 34.5343C13.3667 34.138 13.7694 34.0451 14.2191 34.1238C14.4463 34.1743 14.6704 34.2397 14.8898 34.3184C15.023 34.3594 15.1554 34.4059 15.287 34.4524C15.396 34.4965 15.5197 34.4705 15.6028 34.3878L15.6811 34.205H16.2703C16.3119 34.3342 16.3056 34.4737 16.2523 34.5981C16.1152 34.9125 15.9797 35.2284 15.8198 35.531C15.6153 35.9171 15.3803 36.2874 15.1711 36.6711C14.8734 37.2509 14.7159 37.8923 14.7096 38.5446C14.7065 38.6211 14.7018 38.6975 14.6971 38.7873H13.1904C13.1536 38.6116 13.1481 38.4304 13.1739 38.2523C13.2186 37.5811 13.5077 36.95 13.9872 36.4804C14.3037 36.1676 14.6328 35.8682 14.9548 35.5617C15.0269 35.4924 15.0935 35.4175 15.2024 35.3041C15.11 35.3254 15.0708 35.3301 15.034 35.3427C14.712 35.4396 14.3711 35.4538 14.0421 35.3852C13.8666 35.3514 13.6895 35.3269 13.5116 35.3135C13.2672 35.2836 13.0454 35.4585 13.0157 35.7043C13.0157 35.7067 13.0149 35.7091 13.0149 35.7106C12.9929 35.8257 12.9788 35.9415 12.9726 36.0589C12.9655 36.1345 12.9655 36.2117 12.9608 36.3H12.1538V34.205C12.2878 34.2018 12.4171 34.1971 12.5463 34.1948C12.6764 34.1948 12.8096 34.1955 12.9663 34.1955Z" fill="black"/>
<path d="M27.345 34.7941C27.7783 34.7248 28.2092 34.6594 28.4294 34.2056H29.5984C29.6023 34.2922 29.6078 34.375 29.6086 34.4585C29.6094 35.5221 29.6094 36.5865 29.6086 37.6502C29.6086 37.7053 29.607 37.7597 29.6086 37.8148C29.6164 38.0544 29.6901 38.1339 29.9329 38.1489C30.0481 38.156 30.1641 38.1505 30.2918 38.1505C30.3169 38.3545 30.3231 38.5602 30.3114 38.765C30.1257 38.8115 27.7321 38.8273 27.3489 38.7863V38.1788C27.5636 38.1095 27.8128 38.2135 28.0557 38.0536C28.087 37.9701 28.1074 37.8834 28.1168 37.7951C28.123 37.0522 28.1207 36.3084 28.1199 35.5654C28.1152 35.5268 28.1074 35.489 28.0956 35.452H27.3442L27.345 34.7941Z" fill="black"/>
<path d="M18.8244 0.0395508L19.1676 1.44749L19.2178 1.4467L19.5978 0.0616113H20.5364V2.45519H19.9542V0.76046C19.7427 1.30804 19.615 1.87846 19.4418 2.44731H18.9059L18.4914 0.725005L18.4421 0.726581C18.4397 0.866036 18.4366 1.00549 18.435 1.14494C18.4335 1.2844 18.4327 1.42701 18.4311 1.56804C18.4295 1.71694 18.4319 1.86585 18.4256 2.01476C18.4194 2.15343 18.4037 2.2921 18.3904 2.45204L17.8725 2.42367C17.8215 2.2527 17.8231 0.400399 17.8733 0.0395508H18.8244Z" fill="black"/>
<path d="M30.9704 7.56667L30.4611 7.10812L30.6687 5.55049L30.628 5.53315L29.7708 6.47703L29.2678 6.01061L30.8865 4.21582L31.3888 4.68697L31.1733 6.24697L31.2117 6.26824L32.079 5.31649L32.5899 5.77661L30.9704 7.56667Z" fill="black"/>
<path d="M8.81589 4.50118L8.0747 3.48639L8.62315 3.07275L10.053 5.01724L9.50303 5.43324L7.97049 4.89827C8.23218 5.29615 8.49936 5.62391 8.75165 5.98554L8.20398 6.39681L6.77173 4.45233L7.32175 4.04263L8.77593 4.54924L8.81589 4.50118Z" fill="black"/>
<path d="M36.6023 20.1666C36.3281 20.4778 36.0829 20.6306 35.5156 20.8386V20.0436L36.278 19.6513C36.3971 19.6087 36.4887 19.5103 36.524 19.3873C36.5279 19.3401 36.5287 19.2928 36.5248 19.2447H35.5752C35.5501 18.9989 35.5493 18.7515 35.572 18.5057C36.3736 18.4773 37.1602 18.5561 37.9633 18.5459C37.9633 18.7823 37.9672 18.9918 37.9625 19.2014C37.9562 19.4598 37.9421 19.7175 37.9304 19.9751C37.928 20.0216 37.9273 20.0689 37.9202 20.1153C37.8693 20.4667 37.6828 20.6708 37.3843 20.7023C37.0552 20.7724 36.7285 20.5763 36.6329 20.2524C36.6243 20.2264 36.6149 20.1989 36.6023 20.1666ZM37.3608 19.9396C37.4901 19.7513 37.5081 19.6143 37.4477 19.2865L37.009 19.2573C36.9565 19.3976 36.9455 19.5496 36.9784 19.6962C37.0278 19.9475 37.0866 19.9869 37.3608 19.9396Z" fill="black"/>
<path d="M14.8381 0.46485C15.262 0.393941 15.6585 0.326183 16.0565 0.263153C16.1865 0.239516 16.3182 0.226122 16.4498 0.222971C16.7334 0.20091 16.992 0.386062 17.0649 0.661819C17.1604 0.946244 17.057 1.25982 16.8118 1.43079C16.7695 1.46073 16.7256 1.48752 16.6755 1.51982C17.0296 1.72309 17.1863 1.89485 17.5357 2.45976C17.4018 2.48497 17.2756 2.51018 17.1487 2.53224C17.0186 2.55509 16.8886 2.57479 16.7436 2.59843C16.5642 2.36679 16.3824 2.13358 16.2022 1.89958C16.1215 1.75855 15.9468 1.70261 15.7995 1.77115L15.9452 2.72843L15.2291 2.84897L14.8381 0.46485ZM16.3809 1.02346C16.3589 0.831213 16.2735 0.728789 16.1207 0.739031C15.9546 0.733516 15.7893 0.768183 15.6389 0.83988L15.7258 1.30709C15.9915 1.26612 16.2508 1.29055 16.3809 1.02346Z" fill="black"/>
<path d="M11.9531 2.10516C11.957 1.28576 12.7022 0.941459 13.3243 0.925701C14.0991 0.906004 14.4752 1.60249 14.4972 2.29819C14.5207 3.07031 13.8555 3.45085 13.1072 3.47606C12.3911 3.50049 11.9892 2.82134 11.9531 2.10516ZM13.7826 2.39982C13.7724 2.14928 13.6909 1.90661 13.5483 1.70097C13.4183 1.52528 13.1871 1.46067 12.9858 1.54419C12.7852 1.608 12.6528 1.79946 12.6622 2.01061C12.6724 2.26982 12.7625 2.51958 12.92 2.72443C13.0469 2.89382 13.2733 2.95055 13.4645 2.86231C13.6674 2.80479 13.8006 2.61097 13.7826 2.39982Z" fill="black"/>
<path d="M29.813 3.98839C29.7856 4.5139 29.4894 4.98742 29.0303 5.23954C28.7921 5.3656 28.5124 5.3853 28.2593 5.29469C27.9671 5.20487 27.7046 5.03706 27.4993 4.81015C27.2572 4.55487 27.1656 4.19087 27.258 3.84972C27.3332 3.52669 27.508 3.23675 27.7571 3.0193C28.0439 2.74984 28.4584 2.66869 28.8243 2.81051C29.122 2.90899 29.3852 3.09099 29.5835 3.33524C29.7378 3.51724 29.8193 3.74966 29.813 3.98839ZM29.133 3.89542C29.133 3.55506 28.7396 3.22178 28.4106 3.42742C28.1309 3.59445 27.9467 3.88518 27.9154 4.21057C27.8809 4.55409 28.2891 4.84639 28.5853 4.68881C28.8767 4.52099 29.0781 4.22948 29.133 3.89542Z" fill="black"/>
<path d="M1.29913 22.773C0.684077 22.773 0.290757 22.4775 0.155994 21.9047C0.104283 21.7007 0.0870448 21.4895 0.105065 21.2791C0.163828 20.7457 0.435705 20.4527 0.954387 20.3211C1.1722 20.2612 1.39942 20.2447 1.6235 20.2722C2.03092 20.3124 2.3741 20.5945 2.49319 20.9884C2.58251 21.2405 2.61385 21.5092 2.58408 21.7755C2.55274 22.1521 2.3169 22.4799 1.97216 22.6288C1.76218 22.7304 1.53183 22.78 1.29913 22.773ZM1.47855 20.9853C1.26779 20.9797 1.05859 21.0278 0.871335 21.1255C0.701313 21.2319 0.614345 21.4336 0.652736 21.6313C0.673891 21.8338 0.828242 21.9969 1.02804 22.0276C1.27484 22.0749 1.52948 22.0442 1.75826 21.941C1.9463 21.8669 2.06226 21.6754 2.04189 21.473C2.02779 21.1554 1.83426 20.9868 1.47855 20.9853Z" fill="black"/>
<path d="M37.9303 17.602C37.7587 17.6311 37.6083 17.6587 37.4571 17.6808C37.1343 17.728 36.8107 17.7777 36.4871 17.8179C36.0201 17.8769 35.5195 17.665 35.4035 17.0859C35.3549 16.8566 35.3306 16.6234 35.3306 16.3894C35.3173 16.0388 35.5383 15.7221 35.8713 15.6165C36.1157 15.5409 36.3664 15.4865 36.6203 15.4542C36.9345 15.4022 37.251 15.3668 37.5668 15.3242C37.6577 15.5511 37.6953 15.7962 37.6757 16.0396C37.3435 16.0885 37.0066 16.1365 36.6689 16.1862C36.5224 16.2074 36.3743 16.2185 36.2309 16.2508C36.0052 16.2807 35.8462 16.4887 35.876 16.7156C35.8822 16.766 35.8979 16.8141 35.9222 16.859C35.9747 17.0134 36.1275 17.1111 36.2889 17.0922C36.4902 17.0757 36.69 17.0481 36.8906 17.0205C37.1445 16.9859 37.3983 16.9449 37.6522 16.9102C37.7094 16.9063 37.7666 16.9063 37.8245 16.9094L37.9303 17.602Z" fill="black"/>
<path d="M35.1777 12.1395L34.6575 11.0909L34.2164 11.3099L34.7829 12.4649L34.3237 12.7005C34.3018 12.6737 34.2822 12.6445 34.2642 12.6154C33.9837 12.0473 33.7048 11.4793 33.4102 10.8821L35.5726 9.81055L36.4494 11.6006L36.0083 11.8252L35.4441 10.7001L35.0869 10.8742L35.5969 11.9236L35.1777 12.1395Z" fill="black"/>
<path d="M34.5933 9.45062L34.2 8.94874C34.3293 8.63832 34.2964 8.43268 34.1068 8.32159C34.0018 8.26014 33.9548 8.27747 33.8302 8.43505L33.9344 8.75256C33.9979 8.94559 34.0731 9.13547 34.1217 9.33165C34.2 9.57826 34.1256 9.84771 33.9328 10.0195C33.7299 10.2141 33.4345 10.2755 33.1713 10.1786C33.0686 10.1432 32.973 10.0896 32.8884 10.021C32.615 9.7965 32.4144 9.49553 32.3118 9.15595C32.2146 8.83135 32.3423 8.48074 32.6252 8.2948L33.0326 8.81086C32.9237 8.96923 32.8163 9.12917 32.9072 9.32771C32.9574 9.47189 33.0819 9.57668 33.2324 9.59953C33.4416 9.51838 33.4949 9.43329 33.4431 9.23238C33.4118 9.11183 33.3499 8.99917 33.3209 8.87862C33.2676 8.68402 33.2308 8.48468 33.2104 8.28377C33.1822 7.88353 33.6092 7.61329 33.9657 7.7102C34.0496 7.72911 34.1287 7.76299 34.2008 7.80947C34.551 8.05214 34.7931 8.42323 34.8746 8.84317C34.9146 9.05353 34.8205 9.24262 34.5933 9.45062Z" fill="black"/>
<path d="M1.13305 23.5008L1.3634 24.1296C1.18868 24.2611 1.09387 24.4179 1.19338 24.6362C1.25136 24.7638 1.29445 24.789 1.46839 24.7835C1.59375 24.6866 1.55928 24.5495 1.55771 24.4179C1.54674 24.1768 1.54987 23.9349 1.56476 23.6946C1.61961 23.1187 2.30596 22.943 2.71495 23.2574C2.8027 23.3228 2.87713 23.4039 2.93589 23.4961C3.14744 23.8286 3.24068 24.2241 3.19994 24.6173C3.16233 24.9293 2.94686 25.0986 2.66167 25.2326L2.42505 24.6046C2.80348 24.2761 2.79878 23.9468 2.42113 23.7782C2.2135 23.8396 2.17354 23.8806 2.16649 24.0791C2.16101 24.2351 2.17746 24.3927 2.17041 24.5487C2.16884 24.6968 2.15239 24.8449 2.12027 24.9899C2.04035 25.3185 1.71128 25.5202 1.38377 25.4406C1.30777 25.4217 1.23647 25.3886 1.17222 25.3429C1.08761 25.2869 1.01552 25.2145 0.958328 25.1302C0.741295 24.8103 0.643358 24.4234 0.680966 24.0374C0.714657 23.7853 0.890946 23.5749 1.13305 23.5008Z" fill="black"/>
<path d="M23.364 2.99405L22.6322 2.85223C22.6087 2.69781 22.5899 2.56938 22.5695 2.43466L21.7398 2.27551L21.5204 2.64344L20.8066 2.50163L22.1409 0.300293L22.9237 0.44999C23.0827 1.28435 23.2222 2.11872 23.364 2.99405ZM22.5139 1.90993C22.5108 1.61526 22.4638 1.32296 22.3752 1.04169L21.9795 1.79805L22.5139 1.90993Z" fill="black"/>
<path d="M3.64181 11.7386C3.5141 11.7087 3.38326 11.689 3.25868 11.6472C2.95625 11.5448 2.67418 11.388 2.42738 11.1847C2.10379 10.9641 1.9894 10.5379 2.15942 10.1834C2.2127 10.0455 2.28478 9.91468 2.37332 9.7965C2.54726 9.54438 2.85752 9.42541 3.15447 9.49632C3.576 9.58299 3.9654 9.78232 4.2835 10.0738C4.59064 10.3055 4.67839 10.7301 4.488 11.0658C4.42218 11.2068 4.33992 11.3392 4.24276 11.4605C4.0939 11.6394 3.87373 11.7418 3.64181 11.7386ZM3.7327 11.1233C3.90429 11.1296 3.99831 11.0831 4.04297 10.9744C4.09546 10.8546 4.0602 10.7144 3.95678 10.6348C3.66453 10.3764 3.31744 10.1889 2.94136 10.0857C2.81678 10.0447 2.68124 10.099 2.61934 10.2157C2.56214 10.3134 2.57233 10.4363 2.64519 10.5221C2.66713 10.5544 2.69377 10.5828 2.72433 10.6072C2.99385 10.8184 3.2955 10.9854 3.61674 11.102C3.65435 11.113 3.69352 11.1201 3.7327 11.1233Z" fill="black"/>
<path d="M35.8698 14.3813V14.984C35.4772 15.0857 35.069 14.8926 34.8959 14.5239C34.7815 14.3009 34.7141 14.0559 34.6984 13.8054C34.6624 13.4028 34.8677 13.0183 35.221 12.826C35.4937 12.6551 35.811 12.5684 36.133 12.5778C36.4018 12.5778 36.658 12.6929 36.8366 12.8946C37.0999 13.19 37.237 13.5777 37.2189 13.974C37.2033 14.2844 37.0333 14.5657 36.7677 14.724L36.4472 14.167C36.477 14.1331 36.5036 14.1055 36.5279 14.0764C36.7011 13.8849 36.687 13.5895 36.4973 13.4154C36.3963 13.3224 36.2592 13.2791 36.1228 13.2972C35.9019 13.3389 35.688 13.4106 35.4858 13.5099C35.3048 13.5895 35.2124 13.7928 35.2712 13.9826C35.3017 14.1749 35.4521 14.3246 35.6433 14.3545C35.7099 14.3671 35.7797 14.3703 35.8698 14.3813Z" fill="black"/>
<path d="M2.58251 13.887C2.14453 13.8405 1.7277 13.6774 1.37278 13.4151C1.13459 13.2488 1.02333 12.9526 1.09306 12.6697C1.12675 12.5019 1.17925 12.3388 1.24976 12.1836C1.38531 11.8692 1.71595 11.688 2.05207 11.744C2.4642 11.7818 2.85987 11.926 3.20069 12.1623C3.52663 12.3483 3.67001 12.7446 3.53917 13.0975C3.51018 13.2023 3.47179 13.3055 3.42634 13.404C3.27278 13.7389 3.00482 13.8894 2.58251 13.887ZM2.74313 13.2787C2.93117 13.2772 3.03067 13.2141 3.07376 13.0944C3.11686 12.9801 3.07533 12.8509 2.97426 12.7832C2.90374 12.7217 2.82539 12.6705 2.74156 12.6303C2.55665 12.5507 2.36626 12.4806 2.17587 12.4137C2.08733 12.3837 1.99645 12.3632 1.90399 12.3506C1.76139 12.3238 1.6188 12.4003 1.5616 12.5342C1.51616 12.65 1.55063 12.754 1.67913 12.8596C1.73162 12.9061 1.79117 12.9439 1.85541 12.9723C2.0936 13.066 2.33335 13.1551 2.57467 13.2409C2.6303 13.2575 2.6875 13.2693 2.74548 13.2772L2.74313 13.2787Z" fill="black"/>
<path d="M0.784996 17.865L0.674523 18.4788C0.200502 18.3811 -0.0110453 18.1235 0.000707347 17.6492C0.00540838 17.4538 0.0328313 17.2599 0.0829753 17.0709C0.168377 16.7061 0.531924 16.4792 0.894687 16.565C0.991841 16.5879 1.08273 16.632 1.16029 16.6943C1.33658 16.8369 1.48153 17.0141 1.58652 17.2158C1.67662 17.36 1.76673 17.5042 1.87093 17.672C1.98376 17.4955 1.93283 17.3277 1.9579 17.1733C1.98376 17.0126 1.99394 16.8495 2.01432 16.6572L2.53613 16.6856C2.47502 17.3663 2.41704 18.0179 2.35749 18.6947C2.12714 18.6466 1.91638 18.5308 1.75106 18.3622C1.59592 18.1881 1.46116 17.995 1.32326 17.8067C1.24021 17.6933 1.16813 17.5719 1.08978 17.4561C1.06392 17.4175 1.03415 17.3805 1.00203 17.3466C0.917408 17.2395 0.777162 17.193 0.645533 17.2276C0.531925 17.2686 0.454358 17.3742 0.45044 17.4955C0.445739 17.6334 0.530357 17.7587 0.659635 17.8044C0.694893 17.8186 0.728584 17.8367 0.784996 17.865Z" fill="black"/>
<path d="M11.3092 2.6829L11.5247 3.09339L10.6988 3.54248L11.1486 4.4186L10.5061 4.76369L9.38647 2.62066L11.0052 1.7666L11.2449 2.20387L10.2812 2.7223L10.4771 3.11466L11.3092 2.6829Z" fill="black"/>
<path d="M34.938 26.554L34.0173 26.1491L34.3072 25.481L35.2396 25.8788L36.8897 25.585L36.5676 26.32L35.6173 26.4508L36.1681 27.2371L35.85 27.9801L34.938 26.554Z" fill="black"/>
<path d="M24.6452 3.45565L23.9596 3.22086L24.5347 1.50959C24.32 1.36541 24.063 1.34414 23.8264 1.21886L24.0113 0.683105L26.1464 1.41347L25.9615 1.95947L25.2367 1.72311L24.6452 3.45565Z" fill="black"/>
<path d="M35.0972 23.0244L36.8593 23.4876L37.0646 22.751L37.617 22.8967L37.0489 25.0831L36.4887 24.946L36.6767 24.203L34.917 23.7311L35.0972 23.0244Z" fill="black"/>
<path d="M0.759993 15.9625L0.239746 15.8381L0.66519 13.9385L1.0875 14.0314C1.4769 14.672 2.09509 15.14 2.81513 15.3393L2.67566 15.9641C2.02457 15.7601 1.45575 15.3511 1.05224 14.7973C0.920612 15.1944 0.88222 15.5741 0.759993 15.9625Z" fill="black"/>
<path d="M4.252 8.42569C4.20577 8.6589 4.16738 8.85744 4.12585 9.0552C4.11253 9.09538 4.09451 9.13478 4.07336 9.17181L3.6581 8.86611C3.77328 8.51078 3.82107 8.1586 3.62598 7.81272L3.94956 7.36914L5.91695 8.8275L5.52989 9.36484L4.252 8.42569Z" fill="black"/>
<path d="M7.7793 6.78114L7.27708 7.32163L5.62231 5.57175L6.12924 5.0415L7.7793 6.78114Z" fill="black"/>
<path d="M26.3784 4.20885L25.7202 3.89054L26.7458 1.70654L27.4102 2.01697L26.3784 4.20885Z" fill="black"/>
<path d="M3.59781 25.4038L3.88614 26.079L1.67901 27.0379L1.38989 26.3634L3.59781 25.4038Z" fill="black"/>
<path d="M35.3291 21.8769L35.4333 21.167C36.2262 21.2631 37.0019 21.3829 37.805 21.5042L37.707 22.2172C36.9055 22.118 36.1267 22.0029 35.3291 21.8769Z" fill="black"/>
<path d="M29.4002 19.2502C29.4073 19.8797 29.2678 20.5029 28.9944 21.0686C28.6434 21.7596 28.0534 22.2977 27.3349 22.5813C26.8131 22.7893 26.2599 22.9052 25.699 22.9257C25.0455 22.9777 24.3881 22.906 23.7613 22.7153C22.4051 22.278 21.5926 21.3586 21.3858 19.9262C21.2831 19.2738 21.3246 18.6073 21.5072 17.973C21.7822 17.0055 22.4976 16.2279 23.4354 15.8757C24.2393 15.5684 25.1058 15.4613 25.9599 15.5645C26.4503 15.5976 26.9314 15.715 27.3827 15.9104C28.4522 16.354 29.1989 17.3467 29.3321 18.5025C29.3681 18.7499 29.3783 19.0012 29.4002 19.2502ZM26.7363 19.2502C26.7144 18.9153 26.7034 18.5781 26.6666 18.2449C26.6392 17.869 26.5381 17.5035 26.3688 17.167C26.1816 16.7928 25.7945 16.562 25.3785 16.5769C24.9546 16.5557 24.5566 16.7849 24.3607 17.1639C24.2228 17.4278 24.1335 17.7138 24.0959 18.0093C23.9862 18.7373 23.9729 19.4763 24.0567 20.2075C24.0826 20.5431 24.1625 20.8732 24.2933 21.1829C24.5456 21.7761 25.2296 22.0519 25.8196 21.7982C26.079 21.6863 26.2889 21.4838 26.4112 21.2286C26.4832 21.0726 26.5397 20.9103 26.578 20.7424C26.6838 20.2516 26.7363 19.7521 26.7363 19.2502Z" fill="black"/>
<path d="M19.2265 18.1135C19.1803 17.9851 19.1451 17.8819 19.1075 17.7795C18.852 17.0893 18.3381 16.7379 17.6282 16.6615C17.3579 16.6197 17.0813 16.6347 16.8173 16.7056C16.6441 16.756 16.4882 16.8521 16.3652 16.9853C16.1121 17.2665 16.1395 17.5833 16.4608 17.7802C16.648 17.8913 16.8502 17.9756 17.0602 18.0308C17.5021 18.1529 17.9541 18.2412 18.3976 18.3609C18.9131 18.4862 19.4052 18.6926 19.8565 18.9731C20.3415 19.2764 20.6525 19.7956 20.6917 20.3684C20.774 20.9499 20.6118 21.5392 20.2435 21.9954C19.9638 22.3255 19.6003 22.5729 19.1913 22.7108C18.6444 22.8959 18.0654 22.97 17.4895 22.9282C16.8118 22.8912 16.1482 22.7187 15.537 22.4208C15.5104 22.4082 15.4806 22.4004 15.4352 22.3846L15.175 22.7525H14.2568V20.199C14.415 20.1746 14.5764 20.1683 14.7363 20.1793C14.8914 20.1754 15.0465 20.1785 15.2213 20.1785C15.2534 20.2628 15.2816 20.3416 15.3137 20.4188C15.6334 21.1847 16.1701 21.6976 16.9983 21.8575C17.2733 21.9213 17.5593 21.915 17.8311 21.8394C17.98 21.7953 18.1187 21.7244 18.2417 21.629C18.4791 21.4588 18.5347 21.1272 18.3663 20.8884C18.3318 20.8396 18.2895 20.797 18.2409 20.7624C18.0411 20.6142 17.8194 20.4976 17.5843 20.4173C17.1291 20.2581 16.6598 20.1415 16.2007 19.9942C15.8802 19.8973 15.5652 19.783 15.2573 19.6522C14.672 19.3907 14.2435 18.9652 14.1134 18.3184C13.9058 17.2855 14.3375 16.3873 15.2792 15.8878C15.6828 15.6805 16.127 15.5647 16.5791 15.5466C17.437 15.4828 18.2981 15.6396 19.0793 16.002C19.1075 16.0154 19.1372 16.0248 19.1882 16.0445L19.3785 15.7247H20.3454V18.108C20.166 18.1096 19.9826 18.1127 19.8001 18.1135C19.612 18.1143 19.4256 18.1135 19.2265 18.1135Z" fill="black"/>
<path d="M13.4355 21.7511V22.7115H9.35107V21.7511C9.47722 21.7511 9.60023 21.7534 9.72167 21.7503C9.80707 21.7503 9.89248 21.7432 9.97709 21.729C10.1064 21.7164 10.2098 21.614 10.2247 21.484C10.2435 21.3839 10.256 21.2831 10.2607 21.1822C10.2631 19.8822 10.2631 18.5814 10.2607 17.2814C10.2599 16.8213 10.151 16.7165 9.69347 16.7086C9.58534 16.7071 9.47644 16.7086 9.35107 16.7086V15.7529H13.4073C13.4606 16.0634 13.4653 16.3809 13.4206 16.6929C13.3642 16.6984 13.3046 16.7055 13.2443 16.7094C13.184 16.7134 13.1197 16.7094 13.0571 16.711C12.6402 16.726 12.5415 16.8158 12.5415 17.2294C12.5376 18.5609 12.5376 19.8924 12.5415 21.224C12.5431 21.651 12.6426 21.7432 13.0696 21.7511C13.1855 21.7526 13.3007 21.7511 13.4355 21.7511Z" fill="black"/>
</g>
<defs>
<clipPath id="clip0_2996_14091">
<rect width="38" height="39" fill="white"/>
</clipPath>
</defs>
</svg>
