<?xml version="1.0" encoding="UTF-8"?>
<svg version="1.1" xmlns="http://www.w3.org/2000/svg" width="1000" height="1000">
<!--<path d="M0 0 C330 0 660 0 1000 0 C1000 330 1000 660 1000 1000 C670 1000 340 1000 0 1000 C0 670 0 340 0 0 Z " fill="#FEFEFE" transform="translate(0,0)"/>-->
<path d="M0 0 C77.22 0 154.44 0 234 0 C234 4.95 234 9.9 234 15 C213.54 15 193.08 15 172 15 C172 107.73 172 200.46 172 296 C166.72 296 161.44 296 156 296 C156 203.27 156 110.54 156 15 C151.05 15 146.1 15 141 15 C141 107.73 141 200.46 141 296 C135.72 296 130.44 296 125 296 C125 203.27 125 110.54 125 15 C119.72 15 114.44 15 109 15 C109 107.73 109 200.46 109 296 C104.05 296 99.1 296 94 296 C94 203.27 94 110.54 94 15 C88.72 15 83.44 15 78 15 C78 107.73 78 200.46 78 296 C72.72 296 67.44 296 62 296 C62 203.27 62 110.54 62 15 C41.54 15 21.08 15 0 15 C0 10.05 0 5.1 0 0 Z " fill="#040404" transform="translate(174,371)"/>
<path d="M0 0 C5.94 0 11.88 0 18 0 C26.21308683 20.76895642 34.42567078 41.53810757 42.625 62.3125 C42.93013519 63.08560516 43.23527039 63.85871033 43.5496521 64.65524292 C46.00555984 70.87778614 48.46116223 77.10044985 50.91674805 83.32312012 C52.75915794 87.99191527 54.60166005 92.660674 56.44430542 97.32937622 C57.06633858 98.90543695 57.68834773 100.48150714 58.31033325 102.05758667 C61.85267106 111.03344903 65.3979346 120.00814191 68.94921875 128.98046875 C70.3204348 132.44526411 71.69153183 135.91010655 73.0625 139.375 C73.58438904 140.69398285 73.58438904 140.69398285 74.11682129 142.03961182 C79.84825106 156.52806607 85.54844222 171.02865159 91.2399292 185.53283691 C100.87630345 210.08981584 110.57673962 234.62063063 120.30960083 259.13946533 C120.77590912 260.31418396 121.24221741 261.48890259 121.72265625 262.69921875 C122.18098846 263.85379578 122.63932068 265.0083728 123.11154175 266.19793701 C127.62593257 277.57245053 132.12369742 288.9534898 136.609375 300.33935547 C139.55451029 307.81344373 142.50811849 315.28402192 145.47741699 322.74855042 C147.07588148 326.76743492 148.67191719 330.78728223 150.2678833 334.80715942 C151.04248628 336.7561168 151.81830831 338.70459015 152.59539795 340.65255737 C153.66950967 343.34529701 154.73948425 346.0396462 155.80859375 348.734375 C156.13275772 349.54381058 156.45692169 350.35324615 156.79090881 351.18721008 C159 356.77234831 159 356.77234831 159 359 C153.39 359 147.78 359 142 359 C141.5145874 357.75879395 141.0291748 356.51758789 140.52905273 355.23876953 C128.12636293 323.53341756 115.62186501 291.86984589 103.05873108 260.22773743 C98.73773975 249.34317424 94.42879554 238.45387221 90.125 227.5625 C89.78473785 226.70148682 89.44447571 225.84047363 89.09390259 224.95336914 C87.40518745 220.68008717 85.71668815 216.40671998 84.02832031 212.13330078 C80.87640836 204.15587 77.72235785 196.17928462 74.56854248 188.2026062 C72.79561442 183.71843599 71.0228134 179.23421555 69.25 174.75 C68.54166728 172.95833309 67.83333395 171.16666642 67.125 169.375 C60.04166667 151.45833333 52.95833333 133.54166667 45.875 115.625 C45.34916069 114.29493675 45.34916069 114.29493675 44.81269836 112.93800354 C44.10370218 111.14465905 43.39470764 109.35131392 42.68571472 107.55796814 C40.92503638 103.10446683 39.16433042 98.65097644 37.40356445 94.19750977 C34.09499239 85.82912503 30.7867048 77.46062815 27.4793396 69.09176636 C25.92334162 65.15456114 24.36719403 61.21741506 22.81103516 57.28027344 C22.07186541 55.41002301 21.33276834 53.53974385 20.59375 51.66943359 C19.89700629 49.90612128 19.20012197 48.14286452 18.50308228 46.37966919 C17.85400809 44.73723278 17.20552726 43.09456172 16.55770874 41.45162964 C14.62147942 36.54651969 12.6488969 31.65847885 10.60473633 26.79711914 C10 25 10 25 10 22 C9.34 22 8.68 22 8 22 C7.90009766 22.65307129 7.80019531 23.30614258 7.69726562 23.97900391 C6.7849996 27.93151785 5.33588056 31.56996845 3.84375 35.3359375 C3.51394638 36.17776077 3.18414276 37.01958405 2.84434509 37.88691711 C1.73375912 40.71794619 0.61695881 43.54647978 -0.5 46.375 C-1.29703954 48.40200293 -2.09382643 50.42910522 -2.89038086 52.45629883 C-12.13365531 75.95571945 -21.46812426 99.41935859 -30.79236221 122.88674164 C-35.54013153 134.83646529 -40.27507174 146.79122613 -45 158.75 C-45.33653595 159.60169769 -45.6730719 160.45339539 -46.01980591 161.3309021 C-47.68142722 165.53625609 -49.34275296 169.74172674 -51.00390625 173.94726562 C-54.14392331 181.89635267 -57.28685783 189.84428651 -60.42944336 197.7923584 C-62.20306946 202.27819654 -63.97652659 206.76410149 -65.75 211.25 C-66.45833251 213.04166699 -67.16666585 214.83333366 -67.875 216.625 C-68.225625 217.511875 -68.57625 218.39875 -68.9375 219.3125 C-75.66666667 236.33333333 -82.39583333 253.35416667 -89.125 270.375 C-89.4755545 271.26169876 -89.82610901 272.14839752 -90.18728638 273.06196594 C-90.89632606 274.85541507 -91.60537148 276.64886192 -92.31442261 278.44230652 C-94.07449561 282.89418312 -95.83447211 287.34609781 -97.59423828 291.7980957 C-100.90990093 300.1860229 -104.22657661 308.57354579 -107.54644775 316.95980835 C-109.11262389 320.91625979 -110.67828019 324.87291684 -112.24389648 328.82958984 C-112.98956755 330.71364456 -113.73549263 332.59759876 -114.48168945 334.48144531 C-115.51708472 337.09544799 -116.55159964 339.70979753 -117.5859375 342.32421875 C-117.88829315 343.08687546 -118.1906488 343.84953217 -118.50216675 344.63529968 C-120.38778178 349.40459144 -122.21148851 354.1934178 -124 359 C-129.61 359 -135.22 359 -141 359 C-140.30423403 355.52117013 -139.67906914 352.87767535 -138.41552734 349.67114258 C-138.08850327 348.83534668 -137.76147919 347.99955078 -137.42454529 347.13842773 C-137.06530472 346.23294189 -136.70606415 345.32745605 -136.3359375 344.39453125 C-135.95627335 343.42805664 -135.57660919 342.46158203 -135.18544006 341.46582031 C-133.91941065 338.24640888 -132.64727187 335.02944909 -131.375 331.8125 C-130.47635361 329.53160848 -129.57800335 327.25060027 -128.67993164 324.96948242 C-125.79356409 317.64357274 -122.89786568 310.32136666 -120 303 C-119.52105286 301.78973145 -119.04210571 300.57946289 -118.54864502 299.33251953 C-112.76467525 284.71904597 -106.96896403 270.11024433 -101.16888428 255.50315857 C-96.52117215 243.79697005 -91.8842148 232.08653717 -87.25 220.375 C-86.47680882 218.42114172 -85.70361547 216.46728429 -84.93041992 214.51342773 C-83.77957299 211.60520252 -82.62874681 208.69696909 -81.47798157 205.78871155 C-78.69460187 198.75459907 -75.91003313 191.72095797 -73.125 184.6875 C-65.90836653 166.46160363 -58.69417016 148.23477654 -51.5 130 C-43.92342923 110.79596786 -36.32463118 91.60075408 -28.72407532 72.40620422 C-25.74065331 64.87152919 -22.75874322 57.33625678 -19.77734375 49.80078125 C-18.49411848 46.55775227 -17.21086958 43.31473263 -15.9276123 40.07171631 C-15.11363631 38.01450194 -14.29974989 35.95725213 -13.48596191 33.89996338 C-9.01251638 22.59111364 -4.52534842 11.28819026 0 0 Z " fill="#030303" transform="translate(572,308)"/>
<path d="M0 0 C5.61 0 11.22 0 17 0 C23.60972671 15.71061935 30.02182821 31.48475894 36.1875 47.375 C43.14562474 65.30423867 50.21112304 83.18965587 57.3125 101.0625 C57.85467619 102.42729256 58.39684131 103.79208952 58.93899536 105.15689087 C61.09042247 110.57272219 63.24199684 115.98849495 65.39399719 121.40409851 C70.31407186 133.78637699 75.22226105 146.17334721 80.125 158.5625 C80.70612045 160.03083786 80.70612045 160.03083786 81.29898071 161.52883911 C86.67401784 175.11101027 92.04047437 188.69655521 97.40124512 202.28436279 C102.71623355 215.75587784 108.04373959 229.22241684 113.375 242.6875 C121.23072966 262.5289211 129.082279 282.37198379 136.92414856 302.21888733 C139.01236867 307.50323209 141.1030155 312.78660986 143.19540405 318.06930542 C144.57461488 321.55202648 145.9526311 325.03521949 147.33044434 328.51849365 C147.97370294 330.143911 148.61748227 331.76912239 149.26184082 333.394104 C152.63007056 341.88896108 155.93078396 350.39103848 159 359 C153.39 359 147.78 359 142 359 C137.54449285 349.59101726 133.77941875 339.95898865 130.01699829 330.25683594 C128.02982026 325.133431 126.0319016 320.01421337 124.03515625 314.89453125 C123.62136215 313.8328775 123.20756805 312.77122375 122.78123474 311.67739868 C118.33154814 300.26912469 113.82548748 288.88334967 109.3125 277.5 C108.51055674 275.47649011 107.7086361 273.45297126 106.90673828 271.42944336 C105.72714531 268.45295018 104.5475087 265.47647437 103.36767578 262.50007629 C99.65322652 253.12842567 95.94995627 243.75238031 92.25 234.375 C91.63891606 232.826416 91.02783208 231.27783201 90.41674805 229.72924805 C89.21164821 226.67517087 88.00666307 223.62104848 86.80175781 220.56689453 C84.05435186 213.60290851 81.30618466 206.63922297 78.55770874 199.67565918 C77.93481544 198.09746445 77.31195178 196.51925803 76.68911743 194.94104004 C73.14696327 185.96563522 69.60188396 176.99139968 66.05078125 168.01953125 C64.6795652 164.55473589 63.30846817 161.08989345 61.9375 157.625 C61.58957397 156.7456781 61.24164795 155.8663562 60.88317871 154.96038818 C54.22320242 138.12466555 47.60654922 121.27204852 40.99404907 104.41763306 C35.60859162 90.69331106 30.20554111 76.97625138 24.765625 63.2734375 C24.50741093 62.62291727 24.24919685 61.97239704 23.98315811 61.30216408 C21.24635265 54.40777317 18.5066046 47.51456428 15.76318359 40.62280273 C10.39477285 27.12388851 5.12467837 13.59339571 0 0 Z " fill="#030303" transform="translate(606,308)"/>
<path d="M0 0 C5.28 0 10.56 0 16 0 C19.34748422 7.23674295 22.46641172 14.50194588 25.3515625 21.93359375 C25.75920334 22.97566986 26.16684418 24.01774597 26.58683777 25.09140015 C27.47094995 27.35192872 28.35379708 29.6129524 29.23550415 31.87442017 C31.66686469 38.10915036 34.10897948 44.3396663 36.55078125 50.5703125 C36.80817518 51.22735735 37.06556911 51.8844022 37.33076286 52.5613575 C43.4844566 68.26768002 49.70938164 83.94558176 55.94127655 99.62100601 C57.39487659 103.27742247 58.84805578 106.93400617 60.30126953 110.59057617 C60.58547382 111.30568706 60.86967812 112.02079794 61.16249466 112.75757885 C61.73020592 114.18605129 62.29791302 115.61452538 62.86561584 117.04300117 C63.42468516 118.44972185 63.98377721 119.85643349 64.54289246 121.26313591 C69.37487062 133.42031384 74.19366242 145.58266127 79 157.75 C79.32946625 158.58402344 79.6589325 159.41804687 79.99838257 160.27734375 C81.31258804 163.60429453 82.6267646 166.93125671 83.94081116 170.25827026 C87.75440652 179.91244745 91.5766685 189.56319302 95.39819336 199.2142334 C101.74077541 215.23225081 108.07656811 231.25290723 114.39904785 247.27886963 C119.31169051 259.73054207 124.23461122 272.17812463 129.16217041 284.62390137 C130.36603355 287.66485082 131.56953963 290.70594135 132.77294922 293.74707031 C136.41938492 302.96111617 140.06794779 312.17429419 143.72628784 321.38362122 C145.31572213 325.38563417 146.90326844 329.38839455 148.49053955 333.39126587 C149.24153343 335.28370015 149.99343296 337.1757753 150.74627686 339.06747437 C151.78364728 341.67429487 152.8179455 344.28231444 153.8515625 346.890625 C154.15789612 347.65806534 154.46422974 348.42550568 154.77984619 349.21620178 C156.06713421 352.47263632 157.14876086 355.59504342 158 359 C152.39 359 146.78 359 141 359 C130.37643469 333.15889519 120.16420198 307.16006555 109.95703125 281.15234375 C108.13814899 276.51817885 106.31912266 271.88407053 104.5 267.25 C104.03811279 266.07326721 103.57622559 264.89653442 103.1003418 263.68414307 C95.83222163 245.17081101 88.52408033 226.67378289 81.1875 208.1875 C80.702742 206.96601257 80.21798401 205.74452515 79.71853638 204.48602295 C77.80752217 199.67097155 75.89634686 194.85598415 73.98497009 190.04107666 C69.79605228 179.48825913 65.61285358 168.93319188 61.4375 158.375 C61.1031192 157.52949585 60.7687384 156.6839917 60.42422485 155.81286621 C54.84899165 141.71154401 49.30582466 127.59770423 43.76620483 113.48236084 C43.30710724 112.31255676 42.84800964 111.14275269 42.375 109.9375 C41.9185611 108.7744635 41.46212219 107.611427 40.99185181 106.41314697 C33.57217415 87.51111291 26.1122887 68.62533046 18.625 49.75 C18.14649597 48.543508 17.66799194 47.33701599 17.17498779 46.09396362 C16.24468349 43.74873691 15.31413719 41.40360617 14.3833313 39.05857849 C13.49974871 36.83251162 12.61665705 34.6062498 11.73410034 32.379776 C9.69625375 27.24434099 7.64527906 22.11504279 5.56152344 16.99804688 C4.99587173 15.60359344 4.99587173 15.60359344 4.41879272 14.18096924 C3.71803695 12.45612613 3.01308906 10.73297772 2.3031311 9.01190186 C0 3.33435943 0 3.33435943 0 0 Z " fill="#030303" transform="translate(674,308)"/>
<path d="M0 0 C5.61 0 11.22 0 17 0 C17.86238281 2.18625 18.72476563 4.3725 19.61328125 6.625 C29.24141663 31.02943979 38.89325952 55.42445792 48.55175781 79.81689453 C63.53792178 117.66438373 78.52253319 155.51249668 93.46362305 193.37780762 C100.18741761 210.4178447 106.92469582 227.45252003 113.66918945 244.484375 C114.48128337 246.53515592 115.29337647 248.58593718 116.10546875 250.63671875 C116.50967545 251.65744476 116.91388214 252.67817078 117.33033752 253.72982788 C119.75747103 259.85967311 122.18266191 265.99028226 124.60600281 272.12162781 C126.19654634 276.14585469 127.78766653 280.16985343 129.37887573 284.19381714 C130.16435284 286.18048589 130.94961284 288.16724048 131.73464966 290.15408325 C136.18715286 301.42140256 140.66663448 312.67712341 145.1953125 323.9140625 C146.04095108 326.01537408 146.88657309 328.11669234 147.73217773 330.21801758 C149.33781705 334.20723006 150.95031697 338.19357725 152.56665039 342.1784668 C153.28815864 343.96914342 154.00944414 345.75990983 154.73046875 347.55078125 C155.06382233 348.36709015 155.3971759 349.18339905 155.7406311 350.02444458 C158 355.65916839 158 355.65916839 158 359 C152.39 359 146.78 359 141 359 C140.05640625 356.53273438 139.1128125 354.06546875 138.140625 351.5234375 C131.80945044 334.98944955 125.44451168 318.47387992 118.83618164 302.04833984 C114.07682784 290.21591652 109.378779 278.35956348 104.6875 266.5 C104.27713501 265.46279816 103.86677002 264.42559631 103.44396973 263.35696411 C97.82296591 249.14902049 92.20988574 234.93795516 86.60232544 220.72470093 C80.8811444 206.22362936 75.14503563 191.72848742 69.40625 177.234375 C63.41980806 162.11477163 57.43796174 146.99336215 51.46057129 131.87017822 C45.36809971 116.45621798 39.26828045 101.04517356 33.16629028 85.63497925 C29.04433489 75.2248977 24.92434253 64.81406043 20.81640625 54.3984375 C20.48741837 53.56435867 20.15843048 52.73027985 19.81947327 51.8709259 C18.54979834 48.65164397 17.28021801 45.43232528 16.0116272 42.21261597 C12.98127799 34.52170956 9.94270011 26.83467805 6.8515625 19.16796875 C6.375979 17.98710693 5.90039551 16.80624512 5.41040039 15.58959961 C4.54043734 13.43415229 3.66744652 11.27992338 2.79077148 9.12719727 C2.41766846 8.20350342 2.04456543 7.27980957 1.66015625 6.328125 C1.33668213 5.5330957 1.01320801 4.73806641 0.67993164 3.91894531 C0 2 0 2 0 0 Z " fill="#040404" transform="translate(640,308)"/>
<path d="M0 0 C0.66 0 1.32 0 2 0 C3.21470408 2.4687876 4.39572167 4.94615046 5.5625 7.4375 C5.90474609 8.12521484 6.24699219 8.81292969 6.59960938 9.52148438 C7.07817383 10.56079102 7.07817383 10.56079102 7.56640625 11.62109375 C7.86490479 12.2442749 8.16340332 12.86745605 8.47094727 13.50952148 C10.14472296 21.38870278 6.84698938 28.78691876 3.90625 35.9609375 C3.48784851 37.00747498 3.06944702 38.05401245 2.6383667 39.13226318 C1.26911476 42.55070746 -0.11546086 45.96272232 -1.5 49.375 C-2.46113164 51.76759646 -3.42107913 54.16066891 -4.37988281 56.55419922 C-6.32342442 61.40327317 -8.27201889 66.25026617 -10.22460938 71.09570312 C-13.76393115 79.88778442 -17.24730722 88.701652 -20.72259521 97.51919556 C-22.44496744 101.88764435 -24.17203264 106.25423748 -25.8984375 110.62109375 C-26.58173441 112.35008632 -27.2650027 114.07909021 -27.94824219 115.80810547 C-31.42318913 124.60148956 -34.89899012 133.39453604 -38.375 142.1875 C-38.72210022 143.06556305 -39.06920044 143.9436261 -39.42681885 144.84829712 C-44.75001621 158.31409709 -50.07840911 171.77783515 -55.40881348 185.24078369 C-61.4880895 200.59518117 -67.56335511 215.95113284 -73.625 231.3125 C-74.22053032 232.82145579 -74.81607066 234.33040762 -75.41162109 235.83935547 C-78.02385853 242.4581673 -80.63595278 249.07703533 -83.24707031 255.69628906 C-85.19947431 260.64542333 -87.15298148 265.59412108 -89.1071167 270.54257202 C-89.86110966 272.45243922 -90.61473901 274.36245001 -91.36798096 276.27261353 C-92.41624857 278.93081524 -93.46579474 281.58850887 -94.515625 284.24609375 C-94.82432526 285.02977325 -95.13302551 285.81345276 -95.45108032 286.62088013 C-95.74340546 287.3601474 -96.03573059 288.09941467 -96.33691406 288.86108398 C-96.58701233 289.4948143 -96.8371106 290.12854462 -97.0947876 290.78147888 C-98.35553761 293.87136202 -99.68541461 296.93263409 -101 300 C-106.61 300 -112.22 300 -118 300 C-113.73780888 288.56691635 -109.37922959 277.17689389 -104.9375 265.8125 C-104.43502243 264.52549698 -104.43502243 264.52549698 -103.9223938 263.2124939 C-95.60578759 241.91668871 -87.16734744 220.66912218 -78.73518372 199.41888428 C-74.85458821 189.63757409 -70.98661385 179.85131739 -67.125 170.0625 C-66.82550446 169.30340332 -66.52600891 168.54430664 -66.21743774 167.76220703 C-64.73456908 164.00367267 -63.25195175 160.24503927 -61.76953125 156.48632812 C-58.72268955 148.7611918 -55.67387681 141.0368333 -52.625 133.3125 C-52.31830383 132.53544708 -52.01160767 131.75839417 -51.69561768 130.95779419 C-46.63508397 118.13668119 -41.56851481 105.31795969 -36.5 92.5 C-24.31139939 61.67530569 -12.14389721 30.84233337 0 0 Z " fill="#040404" transform="translate(582,367)"/>
<path d="M0 0 C2.76386679 2.76386679 3.80610852 6.04313315 5.1875 9.625 C5.47302734 10.31207031 5.75855469 10.99914062 6.05273438 11.70703125 C9.79253386 21.4068518 6.11452617 28.89085914 2.3125 38 C1.21342415 40.6814286 0.12261733 43.36620754 -0.96875 46.05078125 C-1.27423264 46.79983231 -1.57971527 47.54888336 -1.89445496 48.32063293 C-6.11242487 58.68831797 -10.17501319 69.11767592 -14.25796509 79.5390625 C-16.66286169 85.67680342 -19.07163795 91.813021 -21.48046875 97.94921875 C-21.95441574 99.15669769 -22.42836273 100.36417664 -22.91667175 101.60824585 C-27.093449 112.24584042 -31.29263956 122.87447206 -35.5 133.5 C-42.02836283 149.98889538 -48.51973739 166.49214485 -55 183 C-61.89735127 200.57016257 -68.80753432 218.13510923 -75.75 235.6875 C-76.29092285 237.05515503 -76.29092285 237.05515503 -76.84277344 238.45043945 C-77.84806343 240.99179581 -78.85361142 243.53304979 -79.859375 246.07421875 C-80.15100525 246.81105392 -80.4426355 247.5478891 -80.74310303 248.30705261 C-82.15561182 251.87400865 -83.57517186 255.43792965 -85 259 C-90.61 259 -96.22 259 -102 259 C-99.83056587 251.35490706 -97.16156441 244.04406983 -94.203125 236.671875 C-93.73760223 235.50187454 -93.27207947 234.33187408 -92.79244995 233.12641907 C-91.79759756 230.62754948 -90.80130011 228.12932129 -89.80230713 225.6321106 C-88.22972287 221.70099147 -86.66293678 217.76757807 -85.09716797 213.83374023 C-83.52427191 209.88269816 -81.9510825 205.93177507 -80.37582397 201.98167419 C-76.26935914 191.68424386 -72.1889854 181.37675623 -68.125 171.0625 C-66.94815561 168.07803075 -65.77094127 165.09370745 -64.59375 162.109375 C-64.15982437 161.00910728 -64.15982437 161.00910728 -63.71713257 159.88661194 C-60.0252409 150.526407 -56.32492267 141.1695326 -52.625 131.8125 C-52.27028625 130.91540314 -51.91557251 130.01830627 -51.55010986 129.09402466 C-49.75254115 124.54784856 -47.95490568 120.00169885 -46.15722656 115.45556641 C-44.01865725 110.04728866 -41.88037677 104.63889676 -39.7421875 99.23046875 C-39.39169342 98.34392105 -39.04119934 97.45737335 -38.68008423 96.54396057 C-36.91767737 92.08605577 -35.15533189 87.62812671 -33.39306641 83.17016602 C-30.13216858 74.921333 -26.87077719 66.67269637 -23.60742188 58.42483521 C-22.10510235 54.62776609 -20.60306406 50.83058577 -19.10107422 47.03338623 C-18.37235042 45.1912581 -17.643511 43.3491757 -16.91455078 41.50714111 C-13.58247644 33.086791 -10.25235132 24.66595471 -6.96875 16.2265625 C-6.54078125 15.12666992 -6.1128125 14.02677734 -5.671875 12.89355469 C-4.91931767 10.95509244 -4.16911348 9.01571408 -3.421875 7.07519531 C-1.10802644 1.10802644 -1.10802644 1.10802644 0 0 Z " fill="#040404" transform="translate(600,408)"/>
<path d="M0 0 C77.22 0 154.44 0 234 0 C234 5.28 234 10.56 234 16 C156.78 16 79.56 16 0 16 C0 10.72 0 5.44 0 0 Z " fill="#030303" transform="translate(174,339)"/>
<path d="M0 0 C77.22 0 154.44 0 234 0 C234 5.28 234 10.56 234 16 C156.78 16 79.56 16 0 16 C0 10.72 0 5.44 0 0 Z " fill="#030303" transform="translate(174,308)"/>
<path d="M0 0 C3.66267771 1.83133885 4.3333437 6.56474097 5.6875 10.25 C6.02072266 11.10980469 6.35394531 11.96960938 6.69726562 12.85546875 C7.00728516 13.69207031 7.31730469 14.52867187 7.63671875 15.390625 C7.92248779 16.15407227 8.20825684 16.91751953 8.50268555 17.70410156 C9.50196764 22.31738029 7.52911877 26.49117035 5.82958984 30.74780273 C5.37700806 31.88748505 4.92442627 33.02716736 4.45812988 34.2013855 C3.95913664 35.44548335 3.4600704 36.68955192 2.9609375 37.93359375 C2.44244498 39.2349641 1.92434606 40.53649133 1.40661621 41.83816528 C0.30604205 44.60297755 -0.79712314 47.36673548 -1.90240479 50.12966919 C-3.63428948 54.45904243 -5.3604212 58.79069369 -7.08544922 63.12280273 C-8.80520129 67.44096918 -10.52523591 71.75902107 -12.24734497 76.07624817 C-16.56315227 86.89586209 -20.85480393 97.72479774 -25.125 108.5625 C-25.71267792 110.05283545 -26.3004055 111.54315132 -26.88818359 113.03344727 C-28.0269848 115.9211089 -29.16548539 118.80888875 -30.30371094 121.69677734 C-34.82775274 133.17456024 -39.35768361 144.65002113 -43.89002991 156.12452698 C-45.753442 160.84236131 -47.61579198 165.56061258 -49.47705078 170.27929688 C-51.65726764 175.80640918 -53.83937521 181.33277209 -56.02258301 186.85870361 C-56.87812145 189.02507721 -57.73302723 191.19170076 -58.58728027 193.35858154 C-59.78176155 196.38816072 -60.97850931 199.41683529 -62.17578125 202.4453125 C-62.71224022 203.80822418 -62.71224022 203.80822418 -63.25953674 205.19866943 C-63.5919487 206.03819153 -63.92436066 206.87771362 -64.2668457 207.74267578 C-64.55469437 208.4718924 -64.84254303 209.20110901 -65.13911438 209.9524231 C-66.0034306 212.00815952 -67.00269415 214.0053883 -68 216 C-73.28 216 -78.56 216 -84 216 C-83.31988725 211.91932353 -82.8428991 209.16993934 -81.38037109 205.515625 C-81.04784836 204.67616333 -80.71532562 203.83670166 -80.37272644 202.97180176 C-80.00996109 202.07360718 -79.64719574 201.1754126 -79.2734375 200.25 C-78.89427689 199.29734253 -78.51511627 198.34468506 -78.12446594 197.36315918 C-76.88006077 194.23991404 -75.62746057 191.12002247 -74.375 188 C-73.50041203 185.80820034 -72.62647709 183.61613999 -71.75317383 181.42382812 C-69.99206886 177.00421114 -68.22834537 172.58565474 -66.46240234 168.16796875 C-63.47315515 160.68601958 -60.5092774 153.19418567 -57.55432129 145.69863892 C-56.67451561 143.46706588 -55.79386509 141.23582765 -54.91308594 139.00463867 C-49.29986941 124.78068309 -43.71388451 110.54602852 -38.125 96.3125 C-25.50505331 64.17348608 -12.87777679 32.0368044 0 0 Z " fill="#040404" transform="translate(616,451)"/>
<path d="M0 0 C33.99 0 67.98 0 103 0 C109 13 109 13 109 15 C71.38 15 33.76 15 -5 15 C-4 9 -4 9 0 0 Z " fill="#000000" transform="translate(580,609)"/>
<path d="M0 0 C25.74 0 51.48 0 78 0 C84 12 84 12 85 16 C55.3 16 25.6 16 -5 16 C-4 10 -4 10 0 0 Z " fill="#040404" transform="translate(592,577)"/>
<path d="M0 0 C1.40897804 0.00333092 1.40897804 0.00333092 2.84642029 0.00672913 C3.90744461 0.00680466 4.96846893 0.00688019 6.06164551 0.00695801 C7.79286903 0.01469994 7.79286903 0.01469994 9.55906677 0.02259827 C10.73404221 0.02401321 11.90901764 0.02542816 13.11959839 0.02688599 C16.88981116 0.0325046 20.65996556 0.04506026 24.43016052 0.05775452 C26.97898779 0.06276712 29.52781599 0.06733044 32.0766449 0.07142639 C38.34033685 0.08248007 44.60399452 0.0992363 50.86766052 0.12025452 C51.50907215 1.39459847 52.14950869 2.66943325 52.78953552 3.94447327 C53.14628357 4.65434387 53.50303162 5.36421448 53.87059021 6.09559631 C55.58029533 9.56733592 56.86766052 12.22316619 56.86766052 16.12025452 C35.41766052 16.12025452 13.96766052 16.12025452 -8.13233948 16.12025452 C-7.37302544 12.32368435 -6.56592122 9.39096263 -5.13233948 5.87025452 C-4.78171448 4.99884827 -4.43108948 4.12744202 -4.06983948 3.22962952 C-2.70217786 0.15239088 -2.70217786 0.15239088 0 0 Z " fill="#090909" transform="translate(607.1323394775391,545.8797454833984)"/>
</svg>
